<svg width="50" height="50" viewBox="0 0 50 50" fill="none" xmlns="http://www.w3.org/2000/svg">
<circle cx="25" cy="25" r="24" stroke="url(#paint0_linear)" stroke-width="2"/>
<path d="M23.2802 22.8889C23.3268 23.3551 23.6531 23.728 24.0727 23.8679L26.4969 24.6138C27.709 24.9867 28.5948 26.059 28.5948 27.3643C28.5481 28.8561 27.4293 30.1148 25.9375 30.2547V31.0006C25.9375 31.5134 25.5179 31.933 25.0051 31.933C24.4923 31.933 24.0727 31.5134 24.0727 31.0006V30.2547H22.3478C21.835 30.2547 21.4154 29.8351 21.4154 29.3223C21.4154 28.8095 21.835 28.3899 22.3478 28.3899H25.4713C26.0773 28.4366 26.6367 27.9704 26.73 27.3643C26.6834 26.8981 26.4037 26.5252 25.9375 26.4319L23.5133 25.686C22.3012 25.3131 21.4154 24.2408 21.4154 22.9355C21.462 21.4437 22.5809 20.185 24.0727 20.0451V19.2992C24.0727 18.7864 24.4923 18.3668 25.0051 18.3668C25.5179 18.3668 25.9375 18.7864 25.9375 19.2992V20.0451H27.6624C28.1752 20.0451 28.5948 20.4647 28.5948 20.9775C28.5948 21.4903 28.1752 21.9099 27.6624 21.9099H24.5389C23.9328 21.8166 23.3268 22.2362 23.2802 22.8889ZM12.8841 23.6348L16.8933 22.0963C17.3595 21.9099 17.6392 21.3971 17.4528 20.8842C17.2663 20.418 16.7535 20.1383 16.2407 20.3248H16.194L14.4691 20.9775C16.7535 15.2433 23.2802 12.3995 29.0609 14.6373C32.4642 15.9426 34.9816 18.833 35.8674 22.3761C35.9606 22.7956 36.3335 23.0753 36.7531 23.0753C36.8464 23.0753 36.893 23.0753 36.9862 23.0287C37.499 22.8889 37.7787 22.3761 37.6389 21.9099C35.8674 14.917 28.7812 10.628 21.7417 12.3995C17.546 13.4718 14.1894 16.502 12.651 20.5113L11.8118 18.3668C11.6254 17.9006 11.0659 17.6675 10.5997 17.8074C10.1335 17.9939 9.90045 18.5533 10.0403 19.0195L11.5787 23.0287C11.7186 23.4017 12.0449 23.6348 12.4645 23.6348C12.6976 23.728 12.7908 23.6814 12.8841 23.6348ZM39.8766 30.9074L38.3382 26.8981C38.1517 26.4319 37.6389 26.1988 37.1261 26.3853L33.1168 27.8771C32.6506 28.0636 32.4175 28.623 32.5574 29.0892C32.7439 29.5554 33.3033 29.7885 33.7695 29.6487L35.541 28.9494C33.4432 34.7768 26.9631 37.807 21.1357 35.6625C17.6859 34.4038 15.0286 31.4668 14.0962 27.8771C13.9563 27.3643 13.4435 27.0846 12.9773 27.2245C12.4645 27.3643 12.1848 27.8771 12.3247 28.3433C14.0962 35.3362 21.2289 39.6252 28.2218 37.8536C32.4642 36.7814 35.914 33.6579 37.3592 29.5088L38.1517 31.56C38.3382 32.0262 38.8976 32.2593 39.3638 32.1195C39.83 31.933 40.0631 31.3736 39.8766 30.9074Z" fill="url(#paint1_linear)"/>
<defs>
<linearGradient id="paint0_linear" x1="0" y1="0" x2="49.97" y2="-1.22388" gradientUnits="userSpaceOnUse">
<stop stop-color="#0C95F3"/>
<stop offset="1" stop-color="#1ACC83"/>
</linearGradient>
<linearGradient id="paint1_linear" x1="10" y1="12" x2="39.9176" y2="11.1643" gradientUnits="userSpaceOnUse">
<stop stop-color="#0C95F3"/>
<stop offset="1" stop-color="#1ACC83"/>
</linearGradient>
</defs>
</svg>
