<svg width="50" height="50" viewBox="0 0 50 50" fill="none" xmlns="http://www.w3.org/2000/svg">
<circle cx="25" cy="25" r="24" stroke="url(#paint0_linear)" stroke-width="2"/>
<path fill-rule="evenodd" clip-rule="evenodd" d="M10.2669 32.9342H7V17H11.7336L15.5337 27.7452L19.3339 17H24.0675V32.9342H20.8006V22.2003L17.0004 32.9342H15.6005H15.467H14.0671L10.2669 22.2003V32.9342ZM27.5346 19.5335C28.2342 19.5335 28.8014 18.9663 28.8014 18.2667C28.8014 17.5671 28.2342 17 27.5346 17C26.835 17 26.2679 17.5671 26.2679 18.2667C26.2679 18.9663 26.835 19.5335 27.5346 19.5335ZM27.5346 22.1989C28.2342 22.1989 28.8013 21.6318 28.8013 20.9322C28.8013 20.2326 28.2342 19.6655 27.5346 19.6655C26.835 19.6655 26.2678 20.2326 26.2678 20.9322C26.2678 21.6318 26.835 22.1989 27.5346 22.1989ZM28.8013 23.6023C28.8013 24.3019 28.2342 24.869 27.5346 24.869C26.835 24.869 26.2678 24.3019 26.2678 23.6023C26.2678 22.9027 26.835 22.3355 27.5346 22.3355C28.2342 22.3355 28.8013 22.9027 28.8013 23.6023ZM27.5346 27.6677C28.2342 27.6677 28.8013 27.1006 28.8013 26.401C28.8013 25.7014 28.2342 25.1343 27.5346 25.1343C26.835 25.1343 26.2678 25.7014 26.2678 26.401C26.2678 27.1006 26.835 27.6677 27.5346 27.6677ZM28.8013 29.0683C28.8013 29.7679 28.2342 30.335 27.5346 30.335C26.835 30.335 26.2678 29.7679 26.2678 29.0683C26.2678 28.3687 26.835 27.8016 27.5346 27.8016C28.2342 27.8016 28.8013 28.3687 28.8013 29.0683ZM27.5346 32.9996C28.2342 32.9996 28.8013 32.4324 28.8013 31.7328C28.8013 31.0332 28.2342 30.4661 27.5346 30.4661C26.835 30.4661 26.2678 31.0332 26.2678 31.7328C26.2678 32.4324 26.835 32.9996 27.5346 32.9996ZM31.4679 18.2667C31.4679 18.9663 30.9008 19.5335 30.2012 19.5335C29.5016 19.5335 28.9344 18.9663 28.9344 18.2667C28.9344 17.5671 29.5016 17 30.2012 17C30.9008 17 31.4679 17.5671 31.4679 18.2667ZM30.2012 22.1989C30.9008 22.1989 31.4679 21.6318 31.4679 20.9322C31.4679 20.2326 30.9008 19.6655 30.2012 19.6655C29.5016 19.6655 28.9344 20.2326 28.9344 20.9322C28.9344 21.6318 29.5016 22.1989 30.2012 22.1989ZM31.4679 23.6023C31.4679 24.3019 30.9008 24.869 30.2012 24.869C29.5016 24.869 28.9344 24.3019 28.9344 23.6023C28.9344 22.9027 29.5016 22.3355 30.2012 22.3355C30.9008 22.3355 31.4679 22.9027 31.4679 23.6023ZM30.2012 27.6677C30.9008 27.6677 31.4679 27.1006 31.4679 26.401C31.4679 25.7014 30.9008 25.1343 30.2012 25.1343C29.5016 25.1343 28.9344 25.7014 28.9344 26.401C28.9344 27.1006 29.5016 27.6677 30.2012 27.6677ZM31.4679 29.0683C31.4679 29.7679 30.9008 30.335 30.2012 30.335C29.5016 30.335 28.9344 29.7679 28.9344 29.0683C28.9344 28.3687 29.5016 27.8016 30.2012 27.8016C30.9008 27.8016 31.4679 28.3687 31.4679 29.0683ZM30.2012 32.9996C30.9008 32.9996 31.4679 32.4324 31.4679 31.7328C31.4679 31.0332 30.9008 30.4661 30.2012 30.4661C29.5016 30.4661 28.9344 31.0332 28.9344 31.7328C28.9344 32.4324 29.5016 32.9996 30.2012 32.9996ZM34.2683 18.2667C34.2683 18.9663 33.7011 19.5335 33.0015 19.5335C32.3019 19.5335 31.7348 18.9663 31.7348 18.2667C31.7348 17.5671 32.3019 17 33.0015 17C33.7011 17 34.2683 17.5671 34.2683 18.2667ZM33.0015 27.6677C33.7011 27.6677 34.2683 27.1006 34.2683 26.401C34.2683 25.7014 33.7011 25.1343 33.0015 25.1343C32.3019 25.1343 31.7348 25.7014 31.7348 26.401C31.7348 27.1006 32.3019 27.6677 33.0015 27.6677ZM36.9351 18.2667C36.9351 18.9663 36.368 19.5335 35.6684 19.5335C34.9688 19.5335 34.4016 18.9663 34.4016 18.2667C34.4016 17.5671 34.9688 17 35.6684 17C36.368 17 36.9351 17.5671 36.9351 18.2667ZM35.6684 27.6677C36.368 27.6677 36.9351 27.1006 36.9351 26.401C36.9351 25.7014 36.368 25.1343 35.6684 25.1343C34.9688 25.1343 34.4016 25.7014 34.4016 26.401C34.4016 27.1006 34.9688 27.6677 35.6684 27.6677ZM39.7348 18.2667C39.7348 18.9663 39.1676 19.5335 38.468 19.5335C37.7684 19.5335 37.2013 18.9663 37.2013 18.2667C37.2013 17.5671 37.7684 17 38.468 17C39.1676 17 39.7348 17.5671 39.7348 18.2667ZM38.468 22.1989C39.1676 22.1989 39.7348 21.6318 39.7348 20.9322C39.7348 20.2326 39.1676 19.6655 38.468 19.6655C37.7684 19.6655 37.2013 20.2326 37.2013 20.9322C37.2013 21.6318 37.7684 22.1989 38.468 22.1989ZM39.7348 23.6023C39.7348 24.3019 39.1676 24.869 38.468 24.869C37.7684 24.869 37.2013 24.3019 37.2013 23.6023C37.2013 22.9027 37.7684 22.3355 38.468 22.3355C39.1676 22.3355 39.7348 22.9027 39.7348 23.6023ZM38.468 27.6677C39.1676 27.6677 39.7348 27.1006 39.7348 26.401C39.7348 25.7014 39.1676 25.1343 38.468 25.1343C37.7684 25.1343 37.2013 25.7014 37.2013 26.401C37.2013 27.1006 37.7684 27.6677 38.468 27.6677ZM42.4018 20.9322C42.4018 21.6318 41.8347 22.1989 41.1351 22.1989C40.4355 22.1989 39.8684 21.6318 39.8684 20.9322C39.8684 20.2326 40.4355 19.6655 41.1351 19.6655C41.8347 19.6655 42.4018 20.2326 42.4018 20.9322ZM41.1351 24.869C41.8347 24.869 42.4018 24.3019 42.4018 23.6023C42.4018 22.9027 41.8347 22.3355 41.1351 22.3355C40.4355 22.3355 39.8684 22.9027 39.8684 23.6023C39.8684 24.3019 40.4355 24.869 41.1351 24.869ZM42.4018 26.401C42.4018 27.1006 41.8347 27.6677 41.1351 27.6677C40.4355 27.6677 39.8684 27.1006 39.8684 26.401C39.8684 25.7014 40.4355 25.1343 41.1351 25.1343C41.8347 25.1343 42.4018 25.7014 42.4018 26.401Z" fill="url(#paint1_linear)"/>
<defs>
<linearGradient id="paint0_linear" x1="0" y1="0" x2="49.97" y2="-1.22388" gradientUnits="userSpaceOnUse">
<stop stop-color="#0C95F3"/>
<stop offset="1" stop-color="#1ACC83"/>
</linearGradient>
<linearGradient id="paint1_linear" x1="7" y1="17" x2="42.2982" y2="15.0871" gradientUnits="userSpaceOnUse">
<stop stop-color="#0C95F3"/>
<stop offset="1" stop-color="#1ACC83"/>
</linearGradient>
</defs>
</svg>
