<svg width="50" height="50" viewBox="0 0 50 50" fill="none" xmlns="http://www.w3.org/2000/svg">
<circle cx="25" cy="25" r="24" stroke="url(#paint0_linear)" stroke-width="2"/>
<path d="M31.2824 15.5134H31.3237L31.3646 15.5066C31.5779 15.471 31.8837 15.5816 32.0663 15.8554L32.0735 15.8661L32.0811 15.8764L36.1752 21.3823L36.1765 21.3839C36.3957 21.6762 36.5 21.835 36.5 22.0722C36.5 22.5725 36.0886 22.984 35.5882 22.984H14.4118C13.9114 22.984 13.5 22.5725 13.5 22.0722C13.5 21.5719 13.9114 21.1604 14.4118 21.1604H32.7647H33.7647L33.1647 20.3604L30.6235 16.9722L30.6236 16.9721L30.6182 16.9652C30.311 16.5702 30.3756 16.0408 30.7989 15.7014C30.9801 15.5831 31.154 15.5134 31.2824 15.5134ZM13.8248 28.4091L13.8235 28.4075C13.6043 28.1152 13.5 27.9564 13.5 27.7193C13.5 27.2189 13.9114 26.8075 14.4118 26.8075H35.5882C36.0886 26.8075 36.5 27.2189 36.5 27.7193C36.5 28.2196 36.0886 28.631 35.5882 28.631H17.2353H16.2353L16.8353 29.431L19.3765 32.8193L19.3764 32.8193L19.3818 32.8262C19.689 33.2212 19.6244 33.7506 19.201 34.0901C19.0198 34.2084 18.846 34.2781 18.7176 34.2781C18.3818 34.2781 18.0865 34.1652 17.9337 33.936L17.9265 33.9253L17.9189 33.915L13.8248 28.4091Z" fill="url(#paint1_linear)" stroke="url(#paint2_linear)"/>
<defs>
<linearGradient id="paint0_linear" x1="0" y1="0" x2="49.97" y2="-1.22388" gradientUnits="userSpaceOnUse">
<stop stop-color="#0C95F3"/>
<stop offset="1" stop-color="#1ACC83"/>
</linearGradient>
<linearGradient id="paint1_linear" x1="13" y1="15" x2="36.9788" y2="14.2873" gradientUnits="userSpaceOnUse">
<stop stop-color="#0C95F3"/>
<stop offset="1" stop-color="#1ACC83"/>
</linearGradient>
<linearGradient id="paint2_linear" x1="13" y1="15" x2="36.9788" y2="14.2873" gradientUnits="userSpaceOnUse">
<stop stop-color="#0C95F3"/>
<stop offset="1" stop-color="#1ACC83"/>
</linearGradient>
</defs>
</svg>
