<svg width="50" height="50" viewBox="0 0 50 50" fill="none" xmlns="http://www.w3.org/2000/svg">
<circle cx="25" cy="25" r="24" stroke="url(#paint0_linear)" stroke-width="2"/>
<path d="M33.8764 17.7011H30.3883V17.063C30.3883 15.3783 28.9826 14 27.2646 14H22.7614C21.0434 14 19.6377 15.3783 19.6377 17.063V17.7011H16.1236C14.4056 17.7011 13 19.0794 13 20.764V32.4543C13 34.1389 14.4056 35.5172 16.1236 35.5172H33.8764C35.5944 35.5172 37 34.1389 37 32.4543V20.764C37 19.0539 35.6204 17.7011 33.8764 17.7011ZM21.7202 17.063C21.7202 16.5014 22.1887 16.042 22.7614 16.042H27.2386C27.8113 16.042 28.2798 16.5014 28.2798 17.063V17.7011H21.7202V17.063ZM34.9176 32.4288C34.9176 32.9903 34.449 33.4498 33.8764 33.4498H16.1236C15.551 33.4498 15.0824 32.9903 15.0824 32.4288V25.2564H22.6573C23.0477 26.1497 23.9588 26.7623 25 26.7623C26.0412 26.7623 26.9523 26.1497 27.3427 25.2564H34.9176V32.4288ZM23.9328 24.2354C23.9328 23.6483 24.4013 23.1889 25 23.1889C25.5987 23.1889 26.0672 23.6483 26.0672 24.2354C26.0672 24.8224 25.5987 25.2819 25 25.2819C24.4013 25.2819 23.9328 24.8224 23.9328 24.2354ZM34.9176 23.2144H27.3688C26.9783 22.321 26.0672 21.7084 25.026 21.7084C23.9848 21.7084 23.0738 22.321 22.6833 23.2144H15.0824V20.764C15.0824 20.2025 15.551 19.743 16.1236 19.743H33.8764C34.449 19.743 34.9176 20.2025 34.9176 20.764V23.2144Z" fill="url(#paint1_linear)"/>
<defs>
<linearGradient id="paint0_linear" x1="0" y1="0" x2="49.97" y2="-1.22388" gradientUnits="userSpaceOnUse">
<stop stop-color="#0C95F3"/>
<stop offset="1" stop-color="#1ACC83"/>
</linearGradient>
<linearGradient id="paint1_linear" x1="13" y1="14" x2="36.9821" y2="13.3448" gradientUnits="userSpaceOnUse">
<stop stop-color="#0C95F3"/>
<stop offset="1" stop-color="#1ACC83"/>
</linearGradient>
</defs>
</svg>
