<svg width="40" height="40" viewBox="0 0 40 40" fill="none" xmlns="http://www.w3.org/2000/svg">
<g clip-path="url(#clip0)">
<path d="M39.4002 24.8378C36.7313 35.551 25.8744 42.0764 15.1612 39.4012C4.44798 36.7323 -2.07119 25.8816 0.597729 15.1684C3.26665 4.44893 14.1236 -2.07024 24.8368 0.598684C35.55 3.26761 42.0692 14.1246 39.4002 24.8378Z" fill="#F7931A"/>
<path d="M28.8183 17.1497C29.2184 14.487 27.1932 13.0557 24.418 12.1056L25.3181 8.49912L23.1242 7.94909L22.2492 11.4618C21.6741 11.3181 21.0803 11.1805 20.4928 11.0493L21.3741 7.51781L19.1802 6.96777L18.2801 10.5743C17.8051 10.468 17.3363 10.3555 16.8801 10.243V10.2305L13.8549 9.47419L13.2736 11.8181C13.2736 11.8181 14.8987 12.1931 14.8674 12.2119C15.755 12.4306 15.9175 13.0244 15.8925 13.4869L14.8674 17.5935C14.9299 17.606 15.0112 17.631 15.0924 17.6685C15.0174 17.6497 14.9424 17.631 14.8612 17.6122L13.4236 23.3626C13.3173 23.6314 13.0423 24.0376 12.4173 23.8814C12.436 23.9126 10.8234 23.4813 10.8234 23.4813L9.73584 25.994L12.5923 26.7066C13.1236 26.8378 13.6423 26.9816 14.1549 27.1128L13.2486 30.7568L15.4425 31.3069L16.3425 27.7004C16.9426 27.8629 17.5238 28.0129 18.0926 28.1566L17.1988 31.7444L19.3927 32.2944L20.299 28.6567C24.043 29.363 26.8557 29.0817 28.037 25.694C28.9933 22.9688 27.987 21.3937 26.0181 20.3749C27.4495 20.0436 28.5308 19.0998 28.8183 17.1497ZM23.8055 24.1814C23.1305 26.9066 18.5364 25.4315 17.0488 25.0627L18.2551 20.2311C19.7427 20.6062 24.5118 21.3437 23.8055 24.1814ZM24.4805 17.1122C23.8618 19.5936 20.0428 18.331 18.8052 18.0247L19.899 13.6432C21.1366 13.9495 25.1243 14.5245 24.4805 17.1122Z" fill="white"/>
</g>
<defs>
<clipPath id="clip0">
<rect width="40" height="40" fill="white"/>
</clipPath>
</defs>
</svg>
