<?xml version="1.0" encoding="UTF-8"?>
<svg width="133px" height="23px" viewBox="0 0 133 23" version="1.1" xmlns="http://www.w3.org/2000/svg" xmlns:xlink="http://www.w3.org/1999/xlink">
    <defs>
        <polygon id="path-1" points="0.40723 0.157227 18.5233 0.157227 18.5233 17.8671 0.40723 17.8671"></polygon>
    </defs>
    <g id="Page-1" stroke="none" stroke-width="1" fill="none" fill-rule="evenodd">
        <g id="oanda-logo">
            <path d="M44.677,20.5212 C39.4727,20.5212 35.7681,16.5517 35.7681,11.656 C35.7681,6.7596 39.4283,2.79102 44.677,2.79102 C49.8805,2.79102 53.6287,6.7596 53.6287,11.656 C53.6287,16.5517 49.9685,20.5212 44.677,20.5212 Z M44.6723,1.01562 C38.3737,1.01562 33.9801,5.77945 33.9801,11.6559 C33.9801,17.5324 38.4262,22.2956 44.6723,22.2956 C51.0239,22.2956 55.4174,17.5324 55.4174,11.6559 C55.4174,5.77945 50.9177,1.01562 44.6723,1.01562 Z" id="Shape" fill="#FFFFFF"></path>
            <path d="M101.072,21.964 L94.354,21.964 L94.354,1.49707 L101.072,1.49707 C107.419,1.64071 111.645,6.38696 111.645,12.0693 C111.645,17.3751 107.376,21.964 101.072,21.964 Z M96.3618,3.26367 L96.3618,20.191 L100.96,20.191 C106.678,20.191 109.755,15.9822 109.755,11.9553 C109.755,7.66383 106.948,3.26367 100.96,3.26367 L96.3618,3.26367 Z" id="Shape" fill="#FFFFFF"></path>
            <path d="M115.808,15.8062 L115.808,4.46875 L115.946,4.46875 L125.365,15.8062 L115.808,15.8062 Z M130.48,21.9633 L132.881,21.9633 L115.856,1.49805 L113.801,1.49805 L113.801,21.9633 L115.808,21.9633 L115.808,17.4681 L126.746,17.4681 L130.48,21.9633 Z" id="Shape" fill="#FFFFFF"></path>
            <path d="M8.35999,22.5126 C9.4372,22.8289 10.5788,22.9997 11.7615,22.9997 C14.0815,22.9997 16.2419,22.3451 18.0639,21.22 L8.35999,9.55273 L8.35999,22.5126 Z" id="Shape" fill="#B8D433"></path>
            <g id="Clipped" transform="translate(5.000000, 0.000000)">
                <mask id="mask-2" fill="white">
                    <use xlink:href="#path-1"></use>
                </mask>
                <g id="Shape"></g>
                <path d="M3.36002,1.97596 L16.5787,17.8672 C17.8065,16.0637 18.5233,13.9021 18.5233,11.5787 C18.5233,5.27082 13.2574,0.157227 6.7615,0.157227 C4.42003,0.157227 2.24013,0.824661 0.40723,1.9701 L3.36002,1.9701 L3.36002,1.97596 Z" id="Shape" fill="#B8D433" mask="url(#mask-2)"></path>
            </g>
            <path d="M0,11.5778 C0,14.6867 1.28122,17.5046 3.35656,19.5642 L3.35656,3.5918 C1.28122,5.6516 0,8.4691 0,11.5778 Z" id="Shape" fill="#B8D433"></path>
            <polygon id="Shape" fill="#FFFFFF" points="74.8533 1.51855 77.0962 1.51855 89.375 18.8306 89.4345 18.8306 89.4345 1.51855 91.4412 1.51855 91.4412 21.9842 89.1976 21.9842 76.9192 4.67238 76.8602 4.67238 76.8602 21.9842 74.8533 21.9842"></polygon>
            <path d="M59.3766,15.826 L64.2771,3.65332 L69.1388,15.826 L59.3766,15.826 Z M71.5969,21.9838 L73.7511,21.9838 L65.4876,1.51855 L63.2437,1.51855 L54.7435,21.9838 L56.8982,21.9838 L58.7076,17.4886 L69.8018,17.4886 L71.5969,21.9838 Z" id="Shape" fill="#FFFFFF"></path>
        </g>
    </g>
</svg>
