<svg id="Layer_1" data-name="Layer 1" xmlns="http://www.w3.org/2000/svg" viewBox="0 0 25 25"><defs><style>.cls-1{fill:#fff;fill-rule:evenodd;}</style></defs><title>Artboard 2 copy 4</title><path class="cls-1" d="M12.5,3.48c2.94,0,3.29,0,4.45.07,3,.13,4.37,1.55,4.51,4.51.05,1.16.06,1.5.06,4.44s0,3.29-.06,4.44c-.14,3-1.53,4.38-4.51,4.51-1.16.06-1.51.07-4.45.07s-3.29,0-4.44-.07c-3-.14-4.38-1.55-4.51-4.51-.06-1.15-.07-1.5-.07-4.44s0-3.29.07-4.44c.13-3,1.52-4.38,4.51-4.51,1.15-.06,1.5-.07,4.44-.07m0-2c-3,0-3.36,0-4.54.07C4,1.75,1.75,4,1.57,8,1.51,9.14,1.5,9.51,1.5,12.5s0,3.36.07,4.54C1.75,21,4,23.25,8,23.43c1.18.06,1.55.07,4.54.07s3.36,0,4.54-.07c4-.18,6.21-2.4,6.39-6.39.06-1.18.07-1.55.07-4.54s0-3.36-.07-4.54C23.25,4,21,1.75,17,1.57c-1.18-.06-1.55-.07-4.54-.07m0,5.35a5.65,5.65,0,1,0,5.65,5.65A5.65,5.65,0,0,0,12.5,6.85m0,9.32a3.67,3.67,0,1,1,3.67-3.67,3.67,3.67,0,0,1-3.67,3.67M18.37,5.31a1.32,1.32,0,1,0,1.32,1.32,1.32,1.32,0,0,0-1.32-1.32"/></svg>