<svg id="Layer_1" data-name="Layer 1" xmlns="http://www.w3.org/2000/svg" viewBox="0 0 25 25"><defs><style>.cls-1{fill:#fff;fill-rule:evenodd;}</style></defs><title>Artboard 2 copy 3</title><path class="cls-1" d="M22.89,3.42A8.48,8.48,0,0,1,20,4.57a4.4,4.4,0,0,0-3.29-1.5,4.64,4.64,0,0,0-4.51,4.76,4.86,4.86,0,0,0,.12,1.09A12.62,12.62,0,0,1,3,3.94a5,5,0,0,0-.61,2.4,4.84,4.84,0,0,0,2,4,4.26,4.26,0,0,1-2-.6v.06A4.7,4.7,0,0,0,6,14.43a4.28,4.28,0,0,1-1.19.17A4,4,0,0,1,4,14.51a4.56,4.56,0,0,0,4.21,3.31,8.73,8.73,0,0,1-5.6,2,7.64,7.64,0,0,1-1.08-.07,12.31,12.31,0,0,0,6.92,2.14c8.3,0,12.84-7.25,12.84-13.55,0-.2,0-.41,0-.61A9.33,9.33,0,0,0,23.5,5.3a8.49,8.49,0,0,1-2.59.75,4.71,4.71,0,0,0,2-2.63"/></svg>