<svg id="Layer_1" data-name="Layer 1" xmlns="http://www.w3.org/2000/svg" viewBox="0 0 25 25"><defs><style>.cls-1{fill:#fff;}</style></defs><title>Artboard 2</title><path class="cls-1" d="M24.48,6.48a3.16,3.16,0,0,0-2.21-2.21c-1.95-.52-9.77-.52-9.77-.52s-7.82,0-9.77.52A3.16,3.16,0,0,0,.52,6.48a32.71,32.71,0,0,0-.52,6,32.71,32.71,0,0,0,.52,6,3.16,3.16,0,0,0,2.21,2.21c1.95.52,9.77.52,9.77.52s7.82,0,9.77-.52a3.16,3.16,0,0,0,2.21-2.21,32.71,32.71,0,0,0,.52-6A32.71,32.71,0,0,0,24.48,6.48ZM10,16.25V8.75l6.49,3.75Z"/></svg>